<svg width="32" height="32" viewBox="0 0 32 32" fill="none" xmlns="http://www.w3.org/2000/svg">
<path d="M15.9953 8.7168C12.0437 8.7168 8.76953 11.9345 8.76953 15.9426C8.76953 19.9507 11.9873 23.1684 15.9953 23.1684C20.0034 23.1684 23.2211 19.8942 23.2211 15.9426C23.2211 11.991 19.947 8.7168 15.9953 8.7168ZM15.9953 20.5716C13.455 20.5716 11.3663 18.4829 11.3663 15.9426C11.3663 13.4023 13.455 11.3136 15.9953 11.3136C18.5357 11.3136 20.6244 13.4023 20.6244 15.9426C20.6244 18.4829 18.5357 20.5716 15.9953 20.5716Z" fill="#333333"/>
<path d="M23.5043 10.1858C24.4084 10.1858 25.1414 9.45286 25.1414 8.54872C25.1414 7.64457 24.4084 6.91162 23.5043 6.91162C22.6001 6.91162 21.8672 7.64457 21.8672 8.54872C21.8672 9.45286 22.6001 10.1858 23.5043 10.1858Z" fill="#333333"/>
<path d="M27.7419 4.31452C26.2742 2.79032 24.1855 2 21.8145 2H10.1855C5.27419 2 2 5.27419 2 10.1855V21.7581C2 24.1855 2.79032 26.2742 4.37097 27.7984C5.89516 29.2661 7.92742 30 10.2419 30H21.7581C24.1855 30 26.2177 29.2097 27.6855 27.7984C29.2097 26.3306 30 24.2419 30 21.8145V10.1855C30 7.81452 29.2097 5.78226 27.7419 4.31452ZM27.5161 21.8145C27.5161 23.5645 26.8952 24.9758 25.879 25.9355C24.8629 26.8952 23.4516 27.4032 21.7581 27.4032H10.2419C8.54839 27.4032 7.1371 26.8952 6.12097 25.9355C5.10484 24.9194 4.59677 23.5081 4.59677 21.7581V10.1855C4.59677 8.49194 5.10484 7.08065 6.12097 6.06452C7.08065 5.10484 8.54839 4.59677 10.2419 4.59677H21.871C23.5645 4.59677 24.9758 5.10484 25.9919 6.12097C26.9516 7.1371 27.5161 8.54839 27.5161 10.1855V21.8145Z" fill="#333333"/>
</svg>
