<svg width="32" height="32" viewBox="0 0 32 32" fill="none" xmlns="http://www.w3.org/2000/svg">
<g clip-path="url(#clip0_108_43)">
<path d="M25.4375 11.0999C25.9125 9.59992 24.6 8.17492 23.1 8.49367C21.725 8.79367 21.3 6.73742 22.6562 6.44367C25.7875 5.76242 28.425 8.76242 27.4375 11.7437C27.0125 13.0687 25.0125 12.4187 25.4375 11.0999ZM13.425 27.9187C6.78125 27.9187 0 24.7062 0 19.3999C0 16.6312 1.75 13.4374 4.76875 10.4187C11 4.18742 17.4687 4.11242 15.6187 10.0624C15.3687 10.8812 16.3875 10.4187 16.3875 10.4374C21.3563 8.33742 25.1688 9.38742 23.5125 13.6499C23.2813 14.2374 23.5813 14.3312 24.0312 14.4687C32.5125 17.1124 26.2063 27.9187 13.425 27.9187ZM22.4062 18.7749C22.0687 15.2937 17.5 12.8999 12.1938 13.4187C6.89375 13.9562 2.89375 17.1874 3.23125 20.6687C3.56875 24.1499 8.1375 26.5437 13.4438 26.0249C18.7438 25.4874 22.7438 22.2562 22.4062 18.7749ZM21.7437 2.19367C20.125 2.54367 20.6938 4.92492 22.2625 4.58742C26.7813 3.63742 30.6875 7.88742 29.2437 12.3374C28.7812 13.8499 31.0625 14.6499 31.5812 13.0874C33.575 6.84992 28.1375 0.843672 21.7437 2.19367ZM16.8375 21.6312C15.7687 24.0562 12.6625 25.3812 10.0188 24.5249C7.46875 23.7062 6.39375 21.1874 7.5 18.9187C8.60625 16.7062 11.4437 15.4562 13.9625 16.0999C16.5875 16.7749 17.9062 19.2374 16.8375 21.6312ZM11.4438 19.7562C10.6375 19.4187 9.56875 19.7749 9.06875 20.5624C8.55 21.3687 8.8 22.3124 9.60625 22.6874C10.425 23.0624 11.5313 22.7062 12.05 21.8812C12.55 21.0624 12.2813 20.1124 11.4438 19.7562ZM13.4812 18.9187C13.1625 18.8124 12.7687 18.9562 12.5875 19.2562C12.4062 19.5749 12.5 19.9187 12.8188 20.0624C13.1375 20.1874 13.55 20.0437 13.7312 19.7249C13.9062 19.3999 13.8 19.0437 13.4812 18.9187Z" fill="#333333"/>
</g>
<defs>
<clipPath id="clip0_108_43">
<rect width="32" height="32" fill="white"/>
</clipPath>
</defs>
</svg>
